HIERARCHY
ROOT Hips
{
    OFFSET 0.000 95.320 0.000
    CHANNELS 6 Xposition Yposition Zposition Yrotation Xrotation Zrotation
    JOINT RightUpLeg
    {
        OFFSET -9.625 -1.230 0.000
        CHANNELS 3 Yrotation Xrotation Zrotation 
        JOINT RightLeg
        {
            OFFSET 0.000 -43.120 0.000
            CHANNELS 3 Yrotation Xrotation Zrotation 
            JOINT RightFoot
            {
                OFFSET 0.000 -43.120 0.000
                CHANNELS 3 Yrotation Xrotation Zrotation 
                End Site
                {
                    OFFSET 0.000 -7.850 17.850
                }
            }
        }
    }
    JOINT LeftUpLeg
    {
        OFFSET 9.625 -1.230 0.000
        CHANNELS 3 Yrotation Xrotation Zrotation 
        JOINT LeftLeg
        {
            OFFSET 0.000 -43.120 0.000
            CHANNELS 3 Yrotation Xrotation Zrotation 
            JOINT LeftFoot
            {
                OFFSET 0.000 -43.120 0.000
                CHANNELS 3 Yrotation Xrotation Zrotation 
                End Site
                {
                    OFFSET 0.000 -7.850 17.850
                }
            }
        }
    }
    JOINT Spine
    {
        OFFSET 0.000 12.296 0.000
        CHANNELS 3 Yrotation Xrotation Zrotation 
        JOINT Spine1
        {
            OFFSET 0.000 10.023 0.000
            CHANNELS 3 Yrotation Xrotation Zrotation 
            JOINT Spine2
            {
                OFFSET 0.000 10.437 0.000
                CHANNELS 3 Yrotation Xrotation Zrotation 
                JOINT Spine3
                {
                    OFFSET 0.000 10.023 0.000
                    CHANNELS 3 Yrotation Xrotation Zrotation 
                    JOINT Neck
                    {
                        OFFSET 0.000 10.713 0.000
                        CHANNELS 3 Yrotation Xrotation Zrotation 
                        JOINT Head
                        {
                            OFFSET 0.000 9.720 0.000
                            CHANNELS 3 Yrotation Xrotation Zrotation 
                            End Site
                            {
                                OFFSET 0.000 16.450 0.000
                            }
                        }
                    }
                    JOINT RightShoulder
                    {
                        OFFSET -3.275 7.142 0.000
                        CHANNELS 3 Yrotation Xrotation Zrotation 
                        JOINT RightArm
                        {
                            OFFSET -16.375 0.000 0.000
                            CHANNELS 3 Yrotation Xrotation Zrotation 
                            JOINT RightForeArm
                            {
                                OFFSET -27.250 0.000 0.000
                                CHANNELS 3 Yrotation Xrotation Zrotation 
                                JOINT RightHand
                                {
                                    OFFSET -26.750 0.000 0.000
                                    CHANNELS 3 Yrotation Xrotation Zrotation 
                                    JOINT RightHandThumb1
                                    {
                                        OFFSET -2.561 0.196 3.210
                                        CHANNELS 3 Yrotation Xrotation Zrotation 
                                        JOINT RightHandThumb2
                                        {
                                            OFFSET -2.602 -0.611 2.685
                                            CHANNELS 3 Yrotation Xrotation Zrotation 
                                            JOINT RightHandThumb3
                                            {
                                                OFFSET -2.014 -0.766 1.510
                                                CHANNELS 3 Yrotation Xrotation Zrotation 
                                                End Site
                                                {
                                                    OFFSET -1.364 -0.682 1.364
                                                }
                                            }
                                        }
                                    }
                                    JOINT RightInHandIndex
                                    {
                                        OFFSET -3.316 0.523 2.035
                                        CHANNELS 3 Yrotation Xrotation Zrotation 
                                        JOINT RightHandIndex1
                                        {
                                            OFFSET -5.370 -0.094 1.028
                                            CHANNELS 3 Yrotation Xrotation Zrotation 
                                            JOINT RightHandIndex2
                                            {
                                                OFFSET -3.714 -0.181 0.189
                                                CHANNELS 3 Yrotation Xrotation Zrotation 
                                                JOINT RightHandIndex3
                                                {
                                                    OFFSET -2.105 -0.131 -0.078
                                                    CHANNELS 3 Yrotation Xrotation Zrotation 
                                                    End Site
                                                    {
                                                        OFFSET -1.728 0.000 0.000
                                                    }
                                                }
                                            }
                                        }
                                    }
                                    JOINT RightInHandMiddle
                                    {
                                        OFFSET -3.480 0.532 0.779
                                        CHANNELS 3 Yrotation Xrotation Zrotation 
                                        JOINT RightHandMiddle1
                                        {
                                            OFFSET -5.322 -0.086 0.323
                                            CHANNELS 3 Yrotation Xrotation Zrotation 
                                            JOINT RightHandMiddle2
                                            {
                                                OFFSET -4.049 -0.276 -0.190
                                                CHANNELS 3 Yrotation Xrotation Zrotation 
                                                JOINT RightHandMiddle3
                                                {
                                                    OFFSET -2.528 -0.196 -0.228
                                                    CHANNELS 3 Yrotation Xrotation Zrotation 
                                                    End Site
                                                    {
                                                        OFFSET -1.728 0.000 0.000
                                                    }
                                                }
                                            }
                                        }
                                    }
                                    JOINT RightInHandRing
                                    {
                                        OFFSET -3.461 0.557 -0.133
                                        CHANNELS 3 Yrotation Xrotation Zrotation 
                                        JOINT RightHandRing1
                                        {
                                            OFFSET -4.737 -0.023 -0.494
                                            CHANNELS 3 Yrotation Xrotation Zrotation 
                                            JOINT RightHandRing2
                                            {
                                                OFFSET -3.460 -0.271 -0.703
                                                CHANNELS 3 Yrotation Xrotation Zrotation 
                                                JOINT RightHandRing3
                                                {
                                                    OFFSET -2.414 -0.177 -0.418
                                                    CHANNELS 3 Yrotation Xrotation Zrotation 
                                                    End Site
                                                    {
                                                        OFFSET -1.637 0.000 0.000
                                                    }
                                                }
                                            }
                                        }
                                    }
                                    JOINT RightInHandPinky
                                    {
                                        OFFSET -3.252 0.483 -1.236
                                        CHANNELS 3 Yrotation Xrotation Zrotation 
                                        JOINT RightHandPinky1
                                        {
                                            OFFSET -4.258 -0.023 -1.114
                                            CHANNELS 3 Yrotation Xrotation Zrotation 
                                            JOINT RightHandPinky2
                                            {
                                                OFFSET -2.699 -0.155 -0.856
                                                CHANNELS 3 Yrotation Xrotation Zrotation 
                                                JOINT RightHandPinky3
                                                {
                                                    OFFSET -1.673 -0.135 -0.628
                                                    CHANNELS 3 Yrotation Xrotation Zrotation 
                                                    End Site
                                                    {
                                                        OFFSET -1.273 0.000 0.000
                                                    }
                                                }
                                            }
                                        }
                                    }
                                }
                            }
                        }
                    }
                    JOINT LeftShoulder
                    {
                        OFFSET 3.275 7.142 0.000
                        CHANNELS 3 Yrotation Xrotation Zrotation 
                        JOINT LeftArm
                        {
                            OFFSET 16.375 0.000 0.000
                            CHANNELS 3 Yrotation Xrotation Zrotation 
                            JOINT LeftForeArm
                            {
                                OFFSET 27.250 0.000 0.000
                                CHANNELS 3 Yrotation Xrotation Zrotation 
                                JOINT LeftHand
                                {
                                    OFFSET 26.750 0.000 0.000
                                    CHANNELS 3 Yrotation Xrotation Zrotation 
                                    JOINT LeftHandThumb1
                                    {
                                        OFFSET 2.561 0.196 3.210
                                        CHANNELS 3 Yrotation Xrotation Zrotation 
                                        JOINT LeftHandThumb2
                                        {
                                            OFFSET 2.602 -0.611 2.685
                                            CHANNELS 3 Yrotation Xrotation Zrotation 
                                            JOINT LeftHandThumb3
                                            {
                                                OFFSET 2.014 -0.766 1.510
                                                CHANNELS 3 Yrotation Xrotation Zrotation 
                                                End Site
                                                {
                                                    OFFSET 1.364 -0.682 1.364
                                                }
                                            }
                                        }
                                    }
                                    JOINT LeftInHandIndex
                                    {
                                        OFFSET 3.316 0.523 2.035
                                        CHANNELS 3 Yrotation Xrotation Zrotation 
                                        JOINT LeftHandIndex1
                                        {
                                            OFFSET 5.370 -0.094 1.028
                                            CHANNELS 3 Yrotation Xrotation Zrotation 
                                            JOINT LeftHandIndex2
                                            {
                                                OFFSET 3.714 -0.181 0.189
                                                CHANNELS 3 Yrotation Xrotation Zrotation 
                                                JOINT LeftHandIndex3
                                                {
                                                    OFFSET 2.105 -0.131 -0.078
                                                    CHANNELS 3 Yrotation Xrotation Zrotation 
                                                    End Site
                                                    {
                                                        OFFSET 1.728 0.000 0.000
                                                    }
                                                }
                                            }
                                        }
                                    }
                                    JOINT LeftInHandMiddle
                                    {
                                        OFFSET 3.480 0.532 0.779
                                        CHANNELS 3 Yrotation Xrotation Zrotation 
                                        JOINT LeftHandMiddle1
                                        {
                                            OFFSET 5.322 -0.086 0.323
                                            CHANNELS 3 Yrotation Xrotation Zrotation 
                                            JOINT LeftHandMiddle2
                                            {
                                                OFFSET 4.049 -0.276 -0.190
                                                CHANNELS 3 Yrotation Xrotation Zrotation 
                                                JOINT LeftHandMiddle3
                                                {
                                                    OFFSET 2.528 -0.196 -0.228
                                                    CHANNELS 3 Yrotation Xrotation Zrotation 
                                                    End Site
                                                    {
                                                        OFFSET 1.728 0.000 0.000
                                                    }
                                                }
                                            }
                                        }
                                    }
                                    JOINT LeftInHandRing
                                    {
                                        OFFSET 3.461 0.557 -0.133
                                        CHANNELS 3 Yrotation Xrotation Zrotation 
                                        JOINT LeftHandRing1
                                        {
                                            OFFSET 4.737 -0.023 -0.494
                                            CHANNELS 3 Yrotation Xrotation Zrotation 
                                            JOINT LeftHandRing2
                                            {
                                                OFFSET 3.460 -0.271 -0.703
                                                CHANNELS 3 Yrotation Xrotation Zrotation 
                                                JOINT LeftHandRing3
                                                {
                                                    OFFSET 2.414 -0.177 -0.418
                                                    CHANNELS 3 Yrotation Xrotation Zrotation 
                                                    End Site
                                                    {
                                                        OFFSET 1.637 0.000 0.000
                                                    }
                                                }
                                            }
                                        }
                                    }
                                    JOINT LeftInHandPinky
                                    {
                                        OFFSET 3.252 0.483 -1.236
                                        CHANNELS 3 Yrotation Xrotation Zrotation 
                                        JOINT LeftHandPinky1
                                        {
                                            OFFSET 4.258 -0.023 -1.114
                                            CHANNELS 3 Yrotation Xrotation Zrotation 
                                            JOINT LeftHandPinky2
                                            {
                                                OFFSET 2.699 -0.155 -0.856
                                                CHANNELS 3 Yrotation Xrotation Zrotation 
                                                JOINT LeftHandPinky3
                                                {
                                                    OFFSET 1.673 -0.135 -0.628
                                                    CHANNELS 3 Yrotation Xrotation Zrotation 
                                                    End Site
                                                    {
                                                        OFFSET 1.273 0.000 0.000
                                                    }
                                                }
                                            }
                                        }
                                    }
                                }
                            }
                        }
                    }
                }
            }
        }
    }
}
MOTION

Frames: 4
Frame Time: 0.017
-241.87 98.70 -157.40 61.83 10.85 4.19 -41.04 -9.41 5.82 53.91 5.45 10.45 0.65 11.90 -6.16 -23.65 -17.08 8.76 12.32 41.32 -15.25 10.56 12.13 13.56 -11.32 -1.78 -10.60 -2.84 -0.56 -2.68 -4.54 -1.26 -4.36 -0.90 0.14 0.97 -0.90 0.16 0.98 -14.83 7.52 17.23 6.89 6.49 31.49 -13.96 4.76 36.53 51.00 36.33 12.33 -15.85 -31.54 18.57 26.73 -11.28 3.32 -51.05 60.22 -19.73 -18.34 22.45 -18.00 27.26 -22.72 -8.33 10.00 3.00 49.13 0.00 -0.00 -8.52 0.00 -0.00 -4.26 27.26 -22.72 -8.33 0.00 -8.00 23.04 0.00 -0.00 23.04 0.00 -0.00 23.04 27.26 -22.72 -8.33 -10.00 -20.00 30.08 0.00 -0.00 30.08 0.00 -0.00 30.08 27.26 -22.72 -8.33 -15.00 -35.00 23.76 0.00 -0.00 23.76 0.00 -0.00 23.76 12.82 -0.44 17.60 -7.82 1.48 -73.05 -4.01 -0.82 -4.28 1.22 -17.04 0.78 -3.50 19.41 -16.69 7.31 17.44 7.77 -14.65 -14.98 -0.54 -1.33 8.16 -4.67 -10.00 3.00 -19.96 0.00 -0.00 30.54 0.00 -0.00 15.27 -1.33 8.16 -4.67 0.00 -8.00 -20.40 0.00 -0.00 -20.40 0.00 -0.00 -20.40 -1.33 8.16 -4.67 10.00 -20.00 -23.26 0.00 -0.00 -23.26 0.00 -0.00 -23.26 -1.33 8.16 -4.67 15.00 -35.00 -19.50 0.00 -0.00 -19.50 0.00 -0.00 -19.50 
-242.12 98.76 -157.45 62.64 10.89 4.60 -39.32 -9.81 5.32 53.07 5.10 10.13 0.69 11.81 -5.30 -24.16 -17.33 8.71 13.51 42.23 -15.05 8.86 17.53 10.70 -11.44 -1.58 -10.72 -2.87 -0.52 -2.71 -4.59 -1.20 -4.41 -0.87 0.07 0.96 -0.88 0.08 0.96 -14.82 6.06 17.10 6.75 6.07 31.68 -14.17 4.97 36.49 51.42 35.84 12.19 -15.80 -31.75 17.91 26.73 -11.28 3.32 -50.00 60.63 -18.51 -18.28 22.66 -17.86 27.26 -22.72 -8.33 10.00 3.00 49.78 0.00 -0.00 -8.92 0.00 -0.00 -4.46 27.26 -22.72 -8.33 0.00 -8.00 22.49 0.00 -0.00 22.49 0.00 -0.00 22.49 27.26 -22.72 -8.33 -10.00 -20.00 30.13 0.00 -0.00 30.13 0.00 -0.00 30.13 27.26 -22.72 -8.33 -15.00 -35.00 23.45 0.00 -0.00 23.45 0.00 -0.00 23.45 12.62 -0.74 17.78 -8.19 1.80 -73.48 -4.35 -0.79 -4.24 0.38 -16.94 0.43 -3.50 19.41 -16.69 7.96 17.30 7.59 -14.96 -14.89 -0.30 -1.33 8.16 -4.67 -10.00 3.00 -19.98 0.00 -0.00 30.53 0.00 -0.00 15.27 -1.33 8.16 -4.67 0.00 -8.00 -20.50 0.00 -0.00 -20.50 0.00 -0.00 -20.50 -1.33 8.16 -4.67 10.00 -20.00 -23.25 0.00 -0.00 -23.25 0.00 -0.00 -23.25 -1.33 8.16 -4.67 15.00 -35.00 -19.50 0.00 -0.00 -19.50 0.00 -0.00 -19.50 
-242.44 98.80 -157.54 63.36 11.05 4.97 -37.84 -10.25 4.87 52.17 4.60 9.90 0.73 11.71 -4.61 -24.32 -17.68 8.57 14.19 42.95 -14.79 6.86 19.83 9.70 -11.72 -1.45 -10.74 -2.95 -0.49 -2.71 -4.71 -1.16 -4.41 -0.83 -0.02 0.93 -0.83 -0.01 0.94 -14.51 4.30 16.90 6.91 5.66 31.84 -14.24 5.11 36.45 51.89 35.55 12.05 -15.68 -31.94 17.14 26.73 -11.28 3.32 -49.08 60.97 -17.36 -18.24 22.84 -17.76 27.26 -22.72 -8.33 10.00 3.00 50.33 0.00 -0.00 -9.26 0.00 -0.00 -4.63 27.26 -22.72 -8.33 0.00 -8.00 22.34 0.00 -0.00 22.34 0.00 -0.00 22.34 27.26 -22.72 -8.33 -10.00 -20.00 30.18 0.00 -0.00 30.18 0.00 -0.00 30.18 27.26 -22.72 -8.33 -15.00 -35.00 23.19 0.00 -0.00 23.19 0.00 -0.00 23.19 12.65 -1.08 17.90 -8.59 2.07 -73.95 -4.70 -0.80 -4.17 0.21 -16.86 0.05 -3.50 19.41 -16.69 8.00 17.31 7.53 -15.56 -13.99 0.19 -1.33 8.16 -4.67 -10.00 3.00 -19.99 0.00 -0.00 28.06 0.00 -0.00 14.03 -1.33 8.16 -4.67 0.00 -8.00 -20.49 0.00 -0.00 -20.49 0.00 -0.00 -20.49 -1.33 8.16 -4.67 10.00 -20.00 -23.20 0.00 -0.00 -23.20 0.00 -0.00 -23.20 -1.33 8.16 -4.67 15.00 -35.00 -19.44 0.00 -0.00 -19.44 0.00 -0.00 -19.44 
-242.96 98.79 -157.85 64.02 11.18 5.35 -28.24 -11.93 2.64 43.03 4.54 10.36 0.30 11.39 -3.97 -24.12 -17.92 8.27 13.45 43.16 -15.20 5.80 22.50 9.15 -11.83 -1.32 -10.84 -2.98 -0.46 -2.73 -4.76 -1.12 -4.45 -0.79 -0.11 0.92 -0.80 -0.10 0.92 -14.36 2.51 16.78 6.35 5.47 31.80 -13.69 5.50 36.67 52.25 35.46 11.84 -15.54 -32.09 16.42 26.73 -11.28 3.32 -48.32 61.26 -16.44 -18.23 22.98 -17.68 27.26 -22.72 -8.33 10.00 3.00 50.78 0.00 -0.00 -9.53 0.00 -0.00 -4.76 27.26 -22.72 -8.33 0.00 -8.00 22.19 0.00 -0.00 22.19 0.00 -0.00 22.19 27.26 -22.72 -8.33 -10.00 -20.00 30.25 0.00 -0.00 30.25 0.00 -0.00 30.25 27.26 -22.72 -8.33 -15.00 -35.00 22.98 0.00 -0.00 22.98 0.00 -0.00 22.98 12.46 -1.40 18.13 -9.04 2.39 -74.47 -5.08 -0.84 -4.08 0.04 -16.85 -0.20 -3.50 19.41 -16.69 7.62 17.54 7.65 -15.27 -14.14 0.15 -1.33 8.16 -4.67 -10.00 3.00 -19.97 0.00 -0.00 27.98 0.00 -0.00 13.99 -1.33 8.16 -4.67 0.00 -8.00 -20.48 0.00 -0.00 -20.48 0.00 -0.00 -20.48 -1.33 8.16 -4.67 10.00 -20.00 -23.14 0.00 -0.00 -23.14 0.00 -0.00 -23.14 -1.33 8.16 -4.67 15.00 -35.00 -19.37 0.00 -0.00 -19.37 0.00 -0.00 -19.37 
